<mxfile host="app.diagrams.net" modified="2024-04-26T21:45:47.422Z" agent="Mozilla/5.0 (Macintosh; Intel Mac OS X 10_15_7) AppleWebKit/605.1.15 (KHTML, like Gecko) Version/17.3 Safari/605.1.15" etag="EspwDenznS5pe22kBKJ-" version="24.0.7" type="device">
  <diagram name="PÃ¡gina-1" id="cr2-xi03uMUaVKyp85LB">
    <mxGraphModel dx="1968" dy="2503" grid="1" gridSize="10" guides="1" tooltips="1" connect="1" arrows="1" fold="1" page="1" pageScale="1" pageWidth="827" pageHeight="1169" math="0" shadow="0">
      <root>
        <mxCell id="0" />
        <mxCell id="1" parent="0" />
        <mxCell id="n9ZrqxNSrh2-96SJ6r1Z-2" value="" style="endArrow=none;html=1;rounded=0;" edge="1" parent="1">
          <mxGeometry width="50" height="50" relative="1" as="geometry">
            <mxPoint x="70" y="440" as="sourcePoint" />
            <mxPoint x="280" y="-520" as="targetPoint" />
          </mxGeometry>
        </mxCell>
        <mxCell id="n9ZrqxNSrh2-96SJ6r1Z-3" value="" style="endArrow=none;html=1;rounded=0;" edge="1" parent="1">
          <mxGeometry width="50" height="50" relative="1" as="geometry">
            <mxPoint x="70" y="440" as="sourcePoint" />
            <mxPoint x="280" y="-200" as="targetPoint" />
          </mxGeometry>
        </mxCell>
        <mxCell id="n9ZrqxNSrh2-96SJ6r1Z-4" value="" style="endArrow=none;html=1;rounded=0;exitX=1;exitY=1;exitDx=0;exitDy=0;" edge="1" parent="1" source="n9ZrqxNSrh2-96SJ6r1Z-20">
          <mxGeometry width="50" height="50" relative="1" as="geometry">
            <mxPoint x="80" y="440" as="sourcePoint" />
            <mxPoint x="280" y="440" as="targetPoint" />
          </mxGeometry>
        </mxCell>
        <mxCell id="n9ZrqxNSrh2-96SJ6r1Z-5" value="" style="endArrow=none;html=1;rounded=0;entryX=0;entryY=0;entryDx=0;entryDy=0;" edge="1" parent="1" target="n9ZrqxNSrh2-96SJ6r1Z-18">
          <mxGeometry width="50" height="50" relative="1" as="geometry">
            <mxPoint x="70" y="440" as="sourcePoint" />
            <mxPoint x="280" y="720" as="targetPoint" />
          </mxGeometry>
        </mxCell>
        <mxCell id="n9ZrqxNSrh2-96SJ6r1Z-6" value="" style="endArrow=none;html=1;rounded=0;entryX=0;entryY=0;entryDx=0;entryDy=0;" edge="1" parent="1" target="n9ZrqxNSrh2-96SJ6r1Z-17">
          <mxGeometry width="50" height="50" relative="1" as="geometry">
            <mxPoint x="70" y="440" as="sourcePoint" />
            <mxPoint x="280" y="960" as="targetPoint" />
          </mxGeometry>
        </mxCell>
        <mxCell id="n9ZrqxNSrh2-96SJ6r1Z-17" value="" style="ellipse;whiteSpace=wrap;html=1;aspect=fixed;" vertex="1" parent="1">
          <mxGeometry x="270" y="1390" width="20" height="20" as="geometry" />
        </mxCell>
        <mxCell id="n9ZrqxNSrh2-96SJ6r1Z-18" value="" style="ellipse;whiteSpace=wrap;html=1;aspect=fixed;" vertex="1" parent="1">
          <mxGeometry x="270" y="750" width="20" height="20" as="geometry" />
        </mxCell>
        <mxCell id="n9ZrqxNSrh2-96SJ6r1Z-25" value="" style="endArrow=none;html=1;rounded=0;" edge="1" parent="1">
          <mxGeometry width="50" height="50" relative="1" as="geometry">
            <mxPoint x="80" y="440" as="sourcePoint" />
            <mxPoint x="280" y="120" as="targetPoint" />
          </mxGeometry>
        </mxCell>
        <mxCell id="n9ZrqxNSrh2-96SJ6r1Z-26" value="" style="endArrow=none;html=1;rounded=0;" edge="1" parent="1" target="n9ZrqxNSrh2-96SJ6r1Z-20">
          <mxGeometry width="50" height="50" relative="1" as="geometry">
            <mxPoint x="80" y="440" as="sourcePoint" />
            <mxPoint x="280" y="440" as="targetPoint" />
          </mxGeometry>
        </mxCell>
        <mxCell id="n9ZrqxNSrh2-96SJ6r1Z-20" value="" style="ellipse;whiteSpace=wrap;html=1;aspect=fixed;" vertex="1" parent="1">
          <mxGeometry x="270" y="430" width="20" height="20" as="geometry" />
        </mxCell>
        <mxCell id="n9ZrqxNSrh2-96SJ6r1Z-27" value="" style="endArrow=none;html=1;rounded=0;" edge="1" parent="1" source="n9ZrqxNSrh2-96SJ6r1Z-30" target="n9ZrqxNSrh2-96SJ6r1Z-19">
          <mxGeometry width="50" height="50" relative="1" as="geometry">
            <mxPoint x="70" y="440" as="sourcePoint" />
            <mxPoint x="280" y="560" as="targetPoint" />
          </mxGeometry>
        </mxCell>
        <mxCell id="n9ZrqxNSrh2-96SJ6r1Z-19" value="" style="ellipse;whiteSpace=wrap;html=1;aspect=fixed;" vertex="1" parent="1">
          <mxGeometry x="270" y="1070" width="20" height="20" as="geometry" />
        </mxCell>
        <mxCell id="n9ZrqxNSrh2-96SJ6r1Z-31" value="" style="endArrow=none;html=1;rounded=0;" edge="1" parent="1" target="n9ZrqxNSrh2-96SJ6r1Z-30">
          <mxGeometry width="50" height="50" relative="1" as="geometry">
            <mxPoint x="70" y="440" as="sourcePoint" />
            <mxPoint x="271" y="555" as="targetPoint" />
          </mxGeometry>
        </mxCell>
        <mxCell id="n9ZrqxNSrh2-96SJ6r1Z-30" value="" style="ellipse;whiteSpace=wrap;html=1;aspect=fixed;" vertex="1" parent="1">
          <mxGeometry x="60" y="430" width="20" height="20" as="geometry" />
        </mxCell>
        <mxCell id="n9ZrqxNSrh2-96SJ6r1Z-237" value="" style="ellipse;whiteSpace=wrap;html=1;aspect=fixed;" vertex="1" parent="1">
          <mxGeometry x="270" y="-530" width="20" height="20" as="geometry" />
        </mxCell>
        <mxCell id="n9ZrqxNSrh2-96SJ6r1Z-238" value="" style="ellipse;whiteSpace=wrap;html=1;aspect=fixed;" vertex="1" parent="1">
          <mxGeometry x="270" y="-530" width="20" height="20" as="geometry" />
        </mxCell>
        <mxCell id="n9ZrqxNSrh2-96SJ6r1Z-239" value="" style="endArrow=none;html=1;rounded=0;" edge="1" parent="1" target="n9ZrqxNSrh2-96SJ6r1Z-240">
          <mxGeometry width="50" height="50" relative="1" as="geometry">
            <mxPoint x="280" y="-520" as="sourcePoint" />
            <mxPoint x="490" as="targetPoint" />
          </mxGeometry>
        </mxCell>
        <mxCell id="n9ZrqxNSrh2-96SJ6r1Z-240" value="" style="ellipse;whiteSpace=wrap;html=1;aspect=fixed;" vertex="1" parent="1">
          <mxGeometry x="490" y="-410" width="20" height="20" as="geometry" />
        </mxCell>
        <mxCell id="n9ZrqxNSrh2-96SJ6r1Z-241" value="" style="endArrow=none;html=1;rounded=0;" edge="1" parent="1" target="n9ZrqxNSrh2-96SJ6r1Z-254">
          <mxGeometry width="50" height="50" relative="1" as="geometry">
            <mxPoint x="280" y="-520" as="sourcePoint" />
            <mxPoint x="481" y="-405" as="targetPoint" />
          </mxGeometry>
        </mxCell>
        <mxCell id="n9ZrqxNSrh2-96SJ6r1Z-242" value="" style="endArrow=none;html=1;rounded=0;" edge="1" parent="1" target="n9ZrqxNSrh2-96SJ6r1Z-243">
          <mxGeometry width="50" height="50" relative="1" as="geometry">
            <mxPoint x="280" y="-520" as="sourcePoint" />
            <mxPoint x="390" y="-780" as="targetPoint" />
          </mxGeometry>
        </mxCell>
        <mxCell id="n9ZrqxNSrh2-96SJ6r1Z-243" value="" style="ellipse;whiteSpace=wrap;html=1;aspect=fixed;" vertex="1" parent="1">
          <mxGeometry x="490" y="-680" width="20" height="20" as="geometry" />
        </mxCell>
        <mxCell id="n9ZrqxNSrh2-96SJ6r1Z-244" value="" style="endArrow=none;html=1;rounded=0;" edge="1" parent="1" target="n9ZrqxNSrh2-96SJ6r1Z-245">
          <mxGeometry width="50" height="50" relative="1" as="geometry">
            <mxPoint x="280" y="-520" as="sourcePoint" />
            <mxPoint x="400" y="-680" as="targetPoint" />
          </mxGeometry>
        </mxCell>
        <mxCell id="n9ZrqxNSrh2-96SJ6r1Z-245" value="" style="ellipse;whiteSpace=wrap;html=1;aspect=fixed;" vertex="1" parent="1">
          <mxGeometry x="490" y="-640" width="20" height="20" as="geometry" />
        </mxCell>
        <mxCell id="n9ZrqxNSrh2-96SJ6r1Z-246" value="" style="endArrow=none;html=1;rounded=0;" edge="1" parent="1" target="n9ZrqxNSrh2-96SJ6r1Z-247">
          <mxGeometry width="50" height="50" relative="1" as="geometry">
            <mxPoint x="280" y="-520" as="sourcePoint" />
            <mxPoint x="400" y="-600" as="targetPoint" />
          </mxGeometry>
        </mxCell>
        <mxCell id="n9ZrqxNSrh2-96SJ6r1Z-247" value="" style="ellipse;whiteSpace=wrap;html=1;aspect=fixed;direction=south;" vertex="1" parent="1">
          <mxGeometry x="490" y="-590" width="20" height="20" as="geometry" />
        </mxCell>
        <mxCell id="n9ZrqxNSrh2-96SJ6r1Z-248" value="" style="endArrow=none;html=1;rounded=0;" edge="1" parent="1" target="n9ZrqxNSrh2-96SJ6r1Z-249">
          <mxGeometry width="50" height="50" relative="1" as="geometry">
            <mxPoint x="290" y="-520" as="sourcePoint" />
            <mxPoint x="400" y="-520" as="targetPoint" />
          </mxGeometry>
        </mxCell>
        <mxCell id="n9ZrqxNSrh2-96SJ6r1Z-249" value="" style="ellipse;whiteSpace=wrap;html=1;aspect=fixed;" vertex="1" parent="1">
          <mxGeometry x="490" y="-550" width="20" height="20" as="geometry" />
        </mxCell>
        <mxCell id="n9ZrqxNSrh2-96SJ6r1Z-250" value="" style="endArrow=none;html=1;rounded=0;" edge="1" parent="1" source="n9ZrqxNSrh2-96SJ6r1Z-254" target="n9ZrqxNSrh2-96SJ6r1Z-251">
          <mxGeometry width="50" height="50" relative="1" as="geometry">
            <mxPoint x="289" y="-515" as="sourcePoint" />
            <mxPoint x="400" y="-450" as="targetPoint" />
          </mxGeometry>
        </mxCell>
        <mxCell id="n9ZrqxNSrh2-96SJ6r1Z-251" value="" style="ellipse;whiteSpace=wrap;html=1;aspect=fixed;" vertex="1" parent="1">
          <mxGeometry x="490" y="-510" width="20" height="20" as="geometry" />
        </mxCell>
        <mxCell id="n9ZrqxNSrh2-96SJ6r1Z-252" value="" style="endArrow=none;html=1;rounded=0;" edge="1" parent="1" target="n9ZrqxNSrh2-96SJ6r1Z-253">
          <mxGeometry width="50" height="50" relative="1" as="geometry">
            <mxPoint x="280" y="-520" as="sourcePoint" />
            <mxPoint x="400" y="-370" as="targetPoint" />
          </mxGeometry>
        </mxCell>
        <mxCell id="n9ZrqxNSrh2-96SJ6r1Z-253" value="" style="ellipse;whiteSpace=wrap;html=1;aspect=fixed;" vertex="1" parent="1">
          <mxGeometry x="490" y="-460" width="20" height="20" as="geometry" />
        </mxCell>
        <mxCell id="n9ZrqxNSrh2-96SJ6r1Z-254" value="" style="ellipse;whiteSpace=wrap;html=1;aspect=fixed;" vertex="1" parent="1">
          <mxGeometry x="270" y="-530" width="20" height="20" as="geometry" />
        </mxCell>
        <mxCell id="n9ZrqxNSrh2-96SJ6r1Z-255" value="" style="ellipse;whiteSpace=wrap;html=1;aspect=fixed;" vertex="1" parent="1">
          <mxGeometry x="270" y="-210" width="20" height="20" as="geometry" />
        </mxCell>
        <mxCell id="n9ZrqxNSrh2-96SJ6r1Z-256" value="" style="ellipse;whiteSpace=wrap;html=1;aspect=fixed;" vertex="1" parent="1">
          <mxGeometry x="270" y="-210" width="20" height="20" as="geometry" />
        </mxCell>
        <mxCell id="n9ZrqxNSrh2-96SJ6r1Z-257" value="" style="endArrow=none;html=1;rounded=0;" edge="1" parent="1" target="n9ZrqxNSrh2-96SJ6r1Z-258">
          <mxGeometry width="50" height="50" relative="1" as="geometry">
            <mxPoint x="280" y="-200" as="sourcePoint" />
            <mxPoint x="490" y="320" as="targetPoint" />
          </mxGeometry>
        </mxCell>
        <mxCell id="n9ZrqxNSrh2-96SJ6r1Z-258" value="" style="ellipse;whiteSpace=wrap;html=1;aspect=fixed;" vertex="1" parent="1">
          <mxGeometry x="490" y="-90" width="20" height="20" as="geometry" />
        </mxCell>
        <mxCell id="n9ZrqxNSrh2-96SJ6r1Z-259" value="" style="endArrow=none;html=1;rounded=0;" edge="1" parent="1" target="n9ZrqxNSrh2-96SJ6r1Z-272">
          <mxGeometry width="50" height="50" relative="1" as="geometry">
            <mxPoint x="280" y="-200" as="sourcePoint" />
            <mxPoint x="481" y="-85" as="targetPoint" />
          </mxGeometry>
        </mxCell>
        <mxCell id="n9ZrqxNSrh2-96SJ6r1Z-260" value="" style="endArrow=none;html=1;rounded=0;" edge="1" parent="1" target="n9ZrqxNSrh2-96SJ6r1Z-261">
          <mxGeometry width="50" height="50" relative="1" as="geometry">
            <mxPoint x="280" y="-200" as="sourcePoint" />
            <mxPoint x="390" y="-460" as="targetPoint" />
          </mxGeometry>
        </mxCell>
        <mxCell id="n9ZrqxNSrh2-96SJ6r1Z-261" value="" style="ellipse;whiteSpace=wrap;html=1;aspect=fixed;" vertex="1" parent="1">
          <mxGeometry x="490" y="-360" width="20" height="20" as="geometry" />
        </mxCell>
        <mxCell id="n9ZrqxNSrh2-96SJ6r1Z-262" value="" style="endArrow=none;html=1;rounded=0;" edge="1" parent="1" target="n9ZrqxNSrh2-96SJ6r1Z-263">
          <mxGeometry width="50" height="50" relative="1" as="geometry">
            <mxPoint x="280" y="-200" as="sourcePoint" />
            <mxPoint x="400" y="-360" as="targetPoint" />
          </mxGeometry>
        </mxCell>
        <mxCell id="n9ZrqxNSrh2-96SJ6r1Z-263" value="" style="ellipse;whiteSpace=wrap;html=1;aspect=fixed;" vertex="1" parent="1">
          <mxGeometry x="490" y="-320" width="20" height="20" as="geometry" />
        </mxCell>
        <mxCell id="n9ZrqxNSrh2-96SJ6r1Z-264" value="" style="endArrow=none;html=1;rounded=0;" edge="1" parent="1" target="n9ZrqxNSrh2-96SJ6r1Z-265">
          <mxGeometry width="50" height="50" relative="1" as="geometry">
            <mxPoint x="280" y="-200" as="sourcePoint" />
            <mxPoint x="400" y="-280" as="targetPoint" />
          </mxGeometry>
        </mxCell>
        <mxCell id="n9ZrqxNSrh2-96SJ6r1Z-265" value="" style="ellipse;whiteSpace=wrap;html=1;aspect=fixed;direction=south;" vertex="1" parent="1">
          <mxGeometry x="490" y="-270" width="20" height="20" as="geometry" />
        </mxCell>
        <mxCell id="n9ZrqxNSrh2-96SJ6r1Z-266" value="" style="endArrow=none;html=1;rounded=0;" edge="1" parent="1" target="n9ZrqxNSrh2-96SJ6r1Z-267">
          <mxGeometry width="50" height="50" relative="1" as="geometry">
            <mxPoint x="290" y="-200" as="sourcePoint" />
            <mxPoint x="400" y="-200" as="targetPoint" />
          </mxGeometry>
        </mxCell>
        <mxCell id="n9ZrqxNSrh2-96SJ6r1Z-267" value="" style="ellipse;whiteSpace=wrap;html=1;aspect=fixed;" vertex="1" parent="1">
          <mxGeometry x="490" y="-230" width="20" height="20" as="geometry" />
        </mxCell>
        <mxCell id="n9ZrqxNSrh2-96SJ6r1Z-268" value="" style="endArrow=none;html=1;rounded=0;" edge="1" parent="1" source="n9ZrqxNSrh2-96SJ6r1Z-272" target="n9ZrqxNSrh2-96SJ6r1Z-269">
          <mxGeometry width="50" height="50" relative="1" as="geometry">
            <mxPoint x="289" y="-195" as="sourcePoint" />
            <mxPoint x="400" y="-130" as="targetPoint" />
          </mxGeometry>
        </mxCell>
        <mxCell id="n9ZrqxNSrh2-96SJ6r1Z-269" value="" style="ellipse;whiteSpace=wrap;html=1;aspect=fixed;" vertex="1" parent="1">
          <mxGeometry x="490" y="-190" width="20" height="20" as="geometry" />
        </mxCell>
        <mxCell id="n9ZrqxNSrh2-96SJ6r1Z-270" value="" style="endArrow=none;html=1;rounded=0;" edge="1" parent="1" target="n9ZrqxNSrh2-96SJ6r1Z-271">
          <mxGeometry width="50" height="50" relative="1" as="geometry">
            <mxPoint x="280" y="-200" as="sourcePoint" />
            <mxPoint x="400" y="-50" as="targetPoint" />
          </mxGeometry>
        </mxCell>
        <mxCell id="n9ZrqxNSrh2-96SJ6r1Z-271" value="" style="ellipse;whiteSpace=wrap;html=1;aspect=fixed;" vertex="1" parent="1">
          <mxGeometry x="490" y="-140" width="20" height="20" as="geometry" />
        </mxCell>
        <mxCell id="n9ZrqxNSrh2-96SJ6r1Z-272" value="" style="ellipse;whiteSpace=wrap;html=1;aspect=fixed;" vertex="1" parent="1">
          <mxGeometry x="270" y="-210" width="20" height="20" as="geometry" />
        </mxCell>
        <mxCell id="n9ZrqxNSrh2-96SJ6r1Z-273" value="" style="ellipse;whiteSpace=wrap;html=1;aspect=fixed;" vertex="1" parent="1">
          <mxGeometry x="270" y="110" width="20" height="20" as="geometry" />
        </mxCell>
        <mxCell id="n9ZrqxNSrh2-96SJ6r1Z-274" value="" style="ellipse;whiteSpace=wrap;html=1;aspect=fixed;" vertex="1" parent="1">
          <mxGeometry x="270" y="110" width="20" height="20" as="geometry" />
        </mxCell>
        <mxCell id="n9ZrqxNSrh2-96SJ6r1Z-275" value="" style="endArrow=none;html=1;rounded=0;" edge="1" parent="1" target="n9ZrqxNSrh2-96SJ6r1Z-276">
          <mxGeometry width="50" height="50" relative="1" as="geometry">
            <mxPoint x="280" y="120" as="sourcePoint" />
            <mxPoint x="490" y="640" as="targetPoint" />
          </mxGeometry>
        </mxCell>
        <mxCell id="n9ZrqxNSrh2-96SJ6r1Z-276" value="" style="ellipse;whiteSpace=wrap;html=1;aspect=fixed;" vertex="1" parent="1">
          <mxGeometry x="490" y="230" width="20" height="20" as="geometry" />
        </mxCell>
        <mxCell id="n9ZrqxNSrh2-96SJ6r1Z-277" value="" style="endArrow=none;html=1;rounded=0;" edge="1" parent="1" target="n9ZrqxNSrh2-96SJ6r1Z-290">
          <mxGeometry width="50" height="50" relative="1" as="geometry">
            <mxPoint x="280" y="120" as="sourcePoint" />
            <mxPoint x="481" y="235" as="targetPoint" />
          </mxGeometry>
        </mxCell>
        <mxCell id="n9ZrqxNSrh2-96SJ6r1Z-278" value="" style="endArrow=none;html=1;rounded=0;" edge="1" parent="1" target="n9ZrqxNSrh2-96SJ6r1Z-279">
          <mxGeometry width="50" height="50" relative="1" as="geometry">
            <mxPoint x="280" y="120" as="sourcePoint" />
            <mxPoint x="390" y="-140" as="targetPoint" />
          </mxGeometry>
        </mxCell>
        <mxCell id="n9ZrqxNSrh2-96SJ6r1Z-279" value="" style="ellipse;whiteSpace=wrap;html=1;aspect=fixed;" vertex="1" parent="1">
          <mxGeometry x="490" y="-40" width="20" height="20" as="geometry" />
        </mxCell>
        <mxCell id="n9ZrqxNSrh2-96SJ6r1Z-280" value="" style="endArrow=none;html=1;rounded=0;" edge="1" parent="1" target="n9ZrqxNSrh2-96SJ6r1Z-281">
          <mxGeometry width="50" height="50" relative="1" as="geometry">
            <mxPoint x="280" y="120" as="sourcePoint" />
            <mxPoint x="400" y="-40" as="targetPoint" />
          </mxGeometry>
        </mxCell>
        <mxCell id="n9ZrqxNSrh2-96SJ6r1Z-281" value="" style="ellipse;whiteSpace=wrap;html=1;aspect=fixed;" vertex="1" parent="1">
          <mxGeometry x="490" width="20" height="20" as="geometry" />
        </mxCell>
        <mxCell id="n9ZrqxNSrh2-96SJ6r1Z-282" value="" style="endArrow=none;html=1;rounded=0;" edge="1" parent="1" target="n9ZrqxNSrh2-96SJ6r1Z-283">
          <mxGeometry width="50" height="50" relative="1" as="geometry">
            <mxPoint x="280" y="120" as="sourcePoint" />
            <mxPoint x="400" y="40" as="targetPoint" />
          </mxGeometry>
        </mxCell>
        <mxCell id="n9ZrqxNSrh2-96SJ6r1Z-283" value="" style="ellipse;whiteSpace=wrap;html=1;aspect=fixed;direction=south;" vertex="1" parent="1">
          <mxGeometry x="490" y="50" width="20" height="20" as="geometry" />
        </mxCell>
        <mxCell id="n9ZrqxNSrh2-96SJ6r1Z-284" value="" style="endArrow=none;html=1;rounded=0;" edge="1" parent="1" target="n9ZrqxNSrh2-96SJ6r1Z-285">
          <mxGeometry width="50" height="50" relative="1" as="geometry">
            <mxPoint x="290" y="120" as="sourcePoint" />
            <mxPoint x="400" y="120" as="targetPoint" />
          </mxGeometry>
        </mxCell>
        <mxCell id="n9ZrqxNSrh2-96SJ6r1Z-285" value="" style="ellipse;whiteSpace=wrap;html=1;aspect=fixed;" vertex="1" parent="1">
          <mxGeometry x="490" y="90" width="20" height="20" as="geometry" />
        </mxCell>
        <mxCell id="n9ZrqxNSrh2-96SJ6r1Z-286" value="" style="endArrow=none;html=1;rounded=0;" edge="1" parent="1" source="n9ZrqxNSrh2-96SJ6r1Z-290" target="n9ZrqxNSrh2-96SJ6r1Z-287">
          <mxGeometry width="50" height="50" relative="1" as="geometry">
            <mxPoint x="289" y="125" as="sourcePoint" />
            <mxPoint x="400" y="190" as="targetPoint" />
          </mxGeometry>
        </mxCell>
        <mxCell id="n9ZrqxNSrh2-96SJ6r1Z-287" value="" style="ellipse;whiteSpace=wrap;html=1;aspect=fixed;" vertex="1" parent="1">
          <mxGeometry x="490" y="130" width="20" height="20" as="geometry" />
        </mxCell>
        <mxCell id="n9ZrqxNSrh2-96SJ6r1Z-288" value="" style="endArrow=none;html=1;rounded=0;" edge="1" parent="1" target="n9ZrqxNSrh2-96SJ6r1Z-289">
          <mxGeometry width="50" height="50" relative="1" as="geometry">
            <mxPoint x="280" y="120" as="sourcePoint" />
            <mxPoint x="400" y="270" as="targetPoint" />
          </mxGeometry>
        </mxCell>
        <mxCell id="n9ZrqxNSrh2-96SJ6r1Z-289" value="" style="ellipse;whiteSpace=wrap;html=1;aspect=fixed;" vertex="1" parent="1">
          <mxGeometry x="490" y="180" width="20" height="20" as="geometry" />
        </mxCell>
        <mxCell id="n9ZrqxNSrh2-96SJ6r1Z-290" value="" style="ellipse;whiteSpace=wrap;html=1;aspect=fixed;" vertex="1" parent="1">
          <mxGeometry x="270" y="110" width="20" height="20" as="geometry" />
        </mxCell>
        <mxCell id="n9ZrqxNSrh2-96SJ6r1Z-292" value="" style="endArrow=none;html=1;rounded=0;" edge="1" parent="1" target="n9ZrqxNSrh2-96SJ6r1Z-293">
          <mxGeometry width="50" height="50" relative="1" as="geometry">
            <mxPoint x="280" y="440" as="sourcePoint" />
            <mxPoint x="490" y="960" as="targetPoint" />
          </mxGeometry>
        </mxCell>
        <mxCell id="n9ZrqxNSrh2-96SJ6r1Z-293" value="" style="ellipse;whiteSpace=wrap;html=1;aspect=fixed;" vertex="1" parent="1">
          <mxGeometry x="490" y="550" width="20" height="20" as="geometry" />
        </mxCell>
        <mxCell id="n9ZrqxNSrh2-96SJ6r1Z-294" value="" style="endArrow=none;html=1;rounded=0;" edge="1" parent="1">
          <mxGeometry width="50" height="50" relative="1" as="geometry">
            <mxPoint x="280" y="440" as="sourcePoint" />
            <mxPoint x="280" y="440" as="targetPoint" />
          </mxGeometry>
        </mxCell>
        <mxCell id="n9ZrqxNSrh2-96SJ6r1Z-295" value="" style="endArrow=none;html=1;rounded=0;" edge="1" parent="1" target="n9ZrqxNSrh2-96SJ6r1Z-296">
          <mxGeometry width="50" height="50" relative="1" as="geometry">
            <mxPoint x="280" y="440" as="sourcePoint" />
            <mxPoint x="390" y="180" as="targetPoint" />
          </mxGeometry>
        </mxCell>
        <mxCell id="n9ZrqxNSrh2-96SJ6r1Z-296" value="" style="ellipse;whiteSpace=wrap;html=1;aspect=fixed;" vertex="1" parent="1">
          <mxGeometry x="490" y="280" width="20" height="20" as="geometry" />
        </mxCell>
        <mxCell id="n9ZrqxNSrh2-96SJ6r1Z-297" value="" style="endArrow=none;html=1;rounded=0;" edge="1" parent="1" target="n9ZrqxNSrh2-96SJ6r1Z-298">
          <mxGeometry width="50" height="50" relative="1" as="geometry">
            <mxPoint x="280" y="440" as="sourcePoint" />
            <mxPoint x="400" y="280" as="targetPoint" />
          </mxGeometry>
        </mxCell>
        <mxCell id="n9ZrqxNSrh2-96SJ6r1Z-298" value="" style="ellipse;whiteSpace=wrap;html=1;aspect=fixed;" vertex="1" parent="1">
          <mxGeometry x="490" y="320" width="20" height="20" as="geometry" />
        </mxCell>
        <mxCell id="n9ZrqxNSrh2-96SJ6r1Z-299" value="" style="endArrow=none;html=1;rounded=0;" edge="1" parent="1" target="n9ZrqxNSrh2-96SJ6r1Z-300">
          <mxGeometry width="50" height="50" relative="1" as="geometry">
            <mxPoint x="280" y="440" as="sourcePoint" />
            <mxPoint x="400" y="360" as="targetPoint" />
          </mxGeometry>
        </mxCell>
        <mxCell id="n9ZrqxNSrh2-96SJ6r1Z-300" value="" style="ellipse;whiteSpace=wrap;html=1;aspect=fixed;direction=south;" vertex="1" parent="1">
          <mxGeometry x="490" y="370" width="20" height="20" as="geometry" />
        </mxCell>
        <mxCell id="n9ZrqxNSrh2-96SJ6r1Z-301" value="" style="endArrow=none;html=1;rounded=0;" edge="1" parent="1" target="n9ZrqxNSrh2-96SJ6r1Z-302">
          <mxGeometry width="50" height="50" relative="1" as="geometry">
            <mxPoint x="290" y="440" as="sourcePoint" />
            <mxPoint x="400" y="440" as="targetPoint" />
          </mxGeometry>
        </mxCell>
        <mxCell id="n9ZrqxNSrh2-96SJ6r1Z-302" value="" style="ellipse;whiteSpace=wrap;html=1;aspect=fixed;" vertex="1" parent="1">
          <mxGeometry x="490" y="410" width="20" height="20" as="geometry" />
        </mxCell>
        <mxCell id="n9ZrqxNSrh2-96SJ6r1Z-303" value="" style="endArrow=none;html=1;rounded=0;" edge="1" parent="1" target="n9ZrqxNSrh2-96SJ6r1Z-304">
          <mxGeometry width="50" height="50" relative="1" as="geometry">
            <mxPoint x="290" y="441" as="sourcePoint" />
            <mxPoint x="400" y="510" as="targetPoint" />
          </mxGeometry>
        </mxCell>
        <mxCell id="n9ZrqxNSrh2-96SJ6r1Z-304" value="" style="ellipse;whiteSpace=wrap;html=1;aspect=fixed;" vertex="1" parent="1">
          <mxGeometry x="490" y="450" width="20" height="20" as="geometry" />
        </mxCell>
        <mxCell id="n9ZrqxNSrh2-96SJ6r1Z-305" value="" style="endArrow=none;html=1;rounded=0;" edge="1" parent="1" target="n9ZrqxNSrh2-96SJ6r1Z-306">
          <mxGeometry width="50" height="50" relative="1" as="geometry">
            <mxPoint x="280" y="440" as="sourcePoint" />
            <mxPoint x="400" y="590" as="targetPoint" />
          </mxGeometry>
        </mxCell>
        <mxCell id="n9ZrqxNSrh2-96SJ6r1Z-306" value="" style="ellipse;whiteSpace=wrap;html=1;aspect=fixed;" vertex="1" parent="1">
          <mxGeometry x="490" y="500" width="20" height="20" as="geometry" />
        </mxCell>
        <mxCell id="n9ZrqxNSrh2-96SJ6r1Z-307" value="" style="endArrow=none;html=1;rounded=0;" edge="1" parent="1" target="n9ZrqxNSrh2-96SJ6r1Z-308">
          <mxGeometry width="50" height="50" relative="1" as="geometry">
            <mxPoint x="280" y="760" as="sourcePoint" />
            <mxPoint x="490" y="1280" as="targetPoint" />
          </mxGeometry>
        </mxCell>
        <mxCell id="n9ZrqxNSrh2-96SJ6r1Z-308" value="" style="ellipse;whiteSpace=wrap;html=1;aspect=fixed;" vertex="1" parent="1">
          <mxGeometry x="490" y="870" width="20" height="20" as="geometry" />
        </mxCell>
        <mxCell id="n9ZrqxNSrh2-96SJ6r1Z-309" value="" style="endArrow=none;html=1;rounded=0;" edge="1" parent="1">
          <mxGeometry width="50" height="50" relative="1" as="geometry">
            <mxPoint x="280" y="760" as="sourcePoint" />
            <mxPoint x="280" y="760" as="targetPoint" />
          </mxGeometry>
        </mxCell>
        <mxCell id="n9ZrqxNSrh2-96SJ6r1Z-310" value="" style="endArrow=none;html=1;rounded=0;" edge="1" parent="1" target="n9ZrqxNSrh2-96SJ6r1Z-311">
          <mxGeometry width="50" height="50" relative="1" as="geometry">
            <mxPoint x="280" y="760" as="sourcePoint" />
            <mxPoint x="390" y="500" as="targetPoint" />
          </mxGeometry>
        </mxCell>
        <mxCell id="n9ZrqxNSrh2-96SJ6r1Z-311" value="" style="ellipse;whiteSpace=wrap;html=1;aspect=fixed;" vertex="1" parent="1">
          <mxGeometry x="490" y="600" width="20" height="20" as="geometry" />
        </mxCell>
        <mxCell id="n9ZrqxNSrh2-96SJ6r1Z-312" value="" style="endArrow=none;html=1;rounded=0;" edge="1" parent="1" target="n9ZrqxNSrh2-96SJ6r1Z-313">
          <mxGeometry width="50" height="50" relative="1" as="geometry">
            <mxPoint x="280" y="760" as="sourcePoint" />
            <mxPoint x="400" y="600" as="targetPoint" />
          </mxGeometry>
        </mxCell>
        <mxCell id="n9ZrqxNSrh2-96SJ6r1Z-313" value="" style="ellipse;whiteSpace=wrap;html=1;aspect=fixed;" vertex="1" parent="1">
          <mxGeometry x="490" y="640" width="20" height="20" as="geometry" />
        </mxCell>
        <mxCell id="n9ZrqxNSrh2-96SJ6r1Z-314" value="" style="endArrow=none;html=1;rounded=0;" edge="1" parent="1" target="n9ZrqxNSrh2-96SJ6r1Z-315">
          <mxGeometry width="50" height="50" relative="1" as="geometry">
            <mxPoint x="280" y="760" as="sourcePoint" />
            <mxPoint x="400" y="680" as="targetPoint" />
          </mxGeometry>
        </mxCell>
        <mxCell id="n9ZrqxNSrh2-96SJ6r1Z-315" value="" style="ellipse;whiteSpace=wrap;html=1;aspect=fixed;direction=south;" vertex="1" parent="1">
          <mxGeometry x="490" y="690" width="20" height="20" as="geometry" />
        </mxCell>
        <mxCell id="n9ZrqxNSrh2-96SJ6r1Z-316" value="" style="endArrow=none;html=1;rounded=0;" edge="1" parent="1" target="n9ZrqxNSrh2-96SJ6r1Z-317">
          <mxGeometry width="50" height="50" relative="1" as="geometry">
            <mxPoint x="290" y="760" as="sourcePoint" />
            <mxPoint x="400" y="760" as="targetPoint" />
          </mxGeometry>
        </mxCell>
        <mxCell id="n9ZrqxNSrh2-96SJ6r1Z-317" value="" style="ellipse;whiteSpace=wrap;html=1;aspect=fixed;" vertex="1" parent="1">
          <mxGeometry x="490" y="730" width="20" height="20" as="geometry" />
        </mxCell>
        <mxCell id="n9ZrqxNSrh2-96SJ6r1Z-318" value="" style="endArrow=none;html=1;rounded=0;" edge="1" parent="1" target="n9ZrqxNSrh2-96SJ6r1Z-319">
          <mxGeometry width="50" height="50" relative="1" as="geometry">
            <mxPoint x="290" y="761" as="sourcePoint" />
            <mxPoint x="400" y="830" as="targetPoint" />
          </mxGeometry>
        </mxCell>
        <mxCell id="n9ZrqxNSrh2-96SJ6r1Z-319" value="" style="ellipse;whiteSpace=wrap;html=1;aspect=fixed;" vertex="1" parent="1">
          <mxGeometry x="490" y="770" width="20" height="20" as="geometry" />
        </mxCell>
        <mxCell id="n9ZrqxNSrh2-96SJ6r1Z-320" value="" style="endArrow=none;html=1;rounded=0;" edge="1" parent="1" target="n9ZrqxNSrh2-96SJ6r1Z-321">
          <mxGeometry width="50" height="50" relative="1" as="geometry">
            <mxPoint x="280" y="760" as="sourcePoint" />
            <mxPoint x="400" y="910" as="targetPoint" />
          </mxGeometry>
        </mxCell>
        <mxCell id="n9ZrqxNSrh2-96SJ6r1Z-321" value="" style="ellipse;whiteSpace=wrap;html=1;aspect=fixed;" vertex="1" parent="1">
          <mxGeometry x="490" y="820" width="20" height="20" as="geometry" />
        </mxCell>
        <mxCell id="n9ZrqxNSrh2-96SJ6r1Z-322" value="" style="endArrow=none;html=1;rounded=0;" edge="1" parent="1" target="n9ZrqxNSrh2-96SJ6r1Z-323">
          <mxGeometry width="50" height="50" relative="1" as="geometry">
            <mxPoint x="280" y="1080" as="sourcePoint" />
            <mxPoint x="490" y="1600" as="targetPoint" />
          </mxGeometry>
        </mxCell>
        <mxCell id="n9ZrqxNSrh2-96SJ6r1Z-323" value="" style="ellipse;whiteSpace=wrap;html=1;aspect=fixed;" vertex="1" parent="1">
          <mxGeometry x="490" y="1190" width="20" height="20" as="geometry" />
        </mxCell>
        <mxCell id="n9ZrqxNSrh2-96SJ6r1Z-324" value="" style="endArrow=none;html=1;rounded=0;" edge="1" parent="1">
          <mxGeometry width="50" height="50" relative="1" as="geometry">
            <mxPoint x="280" y="1080" as="sourcePoint" />
            <mxPoint x="280" y="1080" as="targetPoint" />
          </mxGeometry>
        </mxCell>
        <mxCell id="n9ZrqxNSrh2-96SJ6r1Z-325" value="" style="endArrow=none;html=1;rounded=0;" edge="1" parent="1" target="n9ZrqxNSrh2-96SJ6r1Z-326">
          <mxGeometry width="50" height="50" relative="1" as="geometry">
            <mxPoint x="280" y="1080" as="sourcePoint" />
            <mxPoint x="390" y="820" as="targetPoint" />
          </mxGeometry>
        </mxCell>
        <mxCell id="n9ZrqxNSrh2-96SJ6r1Z-326" value="" style="ellipse;whiteSpace=wrap;html=1;aspect=fixed;" vertex="1" parent="1">
          <mxGeometry x="490" y="920" width="20" height="20" as="geometry" />
        </mxCell>
        <mxCell id="n9ZrqxNSrh2-96SJ6r1Z-327" value="" style="endArrow=none;html=1;rounded=0;" edge="1" parent="1" target="n9ZrqxNSrh2-96SJ6r1Z-328">
          <mxGeometry width="50" height="50" relative="1" as="geometry">
            <mxPoint x="280" y="1080" as="sourcePoint" />
            <mxPoint x="400" y="920" as="targetPoint" />
          </mxGeometry>
        </mxCell>
        <mxCell id="n9ZrqxNSrh2-96SJ6r1Z-328" value="" style="ellipse;whiteSpace=wrap;html=1;aspect=fixed;" vertex="1" parent="1">
          <mxGeometry x="490" y="960" width="20" height="20" as="geometry" />
        </mxCell>
        <mxCell id="n9ZrqxNSrh2-96SJ6r1Z-329" value="" style="endArrow=none;html=1;rounded=0;" edge="1" parent="1" target="n9ZrqxNSrh2-96SJ6r1Z-330">
          <mxGeometry width="50" height="50" relative="1" as="geometry">
            <mxPoint x="280" y="1080" as="sourcePoint" />
            <mxPoint x="400" y="1000" as="targetPoint" />
          </mxGeometry>
        </mxCell>
        <mxCell id="n9ZrqxNSrh2-96SJ6r1Z-330" value="" style="ellipse;whiteSpace=wrap;html=1;aspect=fixed;direction=south;" vertex="1" parent="1">
          <mxGeometry x="490" y="1010" width="20" height="20" as="geometry" />
        </mxCell>
        <mxCell id="n9ZrqxNSrh2-96SJ6r1Z-331" value="" style="endArrow=none;html=1;rounded=0;" edge="1" parent="1" target="n9ZrqxNSrh2-96SJ6r1Z-332">
          <mxGeometry width="50" height="50" relative="1" as="geometry">
            <mxPoint x="290" y="1080" as="sourcePoint" />
            <mxPoint x="400" y="1080" as="targetPoint" />
          </mxGeometry>
        </mxCell>
        <mxCell id="n9ZrqxNSrh2-96SJ6r1Z-332" value="" style="ellipse;whiteSpace=wrap;html=1;aspect=fixed;" vertex="1" parent="1">
          <mxGeometry x="490" y="1050" width="20" height="20" as="geometry" />
        </mxCell>
        <mxCell id="n9ZrqxNSrh2-96SJ6r1Z-333" value="" style="endArrow=none;html=1;rounded=0;" edge="1" parent="1" target="n9ZrqxNSrh2-96SJ6r1Z-334">
          <mxGeometry width="50" height="50" relative="1" as="geometry">
            <mxPoint x="290" y="1081" as="sourcePoint" />
            <mxPoint x="400" y="1150" as="targetPoint" />
          </mxGeometry>
        </mxCell>
        <mxCell id="n9ZrqxNSrh2-96SJ6r1Z-334" value="" style="ellipse;whiteSpace=wrap;html=1;aspect=fixed;" vertex="1" parent="1">
          <mxGeometry x="490" y="1090" width="20" height="20" as="geometry" />
        </mxCell>
        <mxCell id="n9ZrqxNSrh2-96SJ6r1Z-335" value="" style="endArrow=none;html=1;rounded=0;" edge="1" parent="1" target="n9ZrqxNSrh2-96SJ6r1Z-336">
          <mxGeometry width="50" height="50" relative="1" as="geometry">
            <mxPoint x="280" y="1080" as="sourcePoint" />
            <mxPoint x="400" y="1230" as="targetPoint" />
          </mxGeometry>
        </mxCell>
        <mxCell id="n9ZrqxNSrh2-96SJ6r1Z-336" value="" style="ellipse;whiteSpace=wrap;html=1;aspect=fixed;" vertex="1" parent="1">
          <mxGeometry x="490" y="1140" width="20" height="20" as="geometry" />
        </mxCell>
        <mxCell id="n9ZrqxNSrh2-96SJ6r1Z-337" value="" style="endArrow=none;html=1;rounded=0;" edge="1" parent="1" target="n9ZrqxNSrh2-96SJ6r1Z-338">
          <mxGeometry width="50" height="50" relative="1" as="geometry">
            <mxPoint x="280" y="1400" as="sourcePoint" />
            <mxPoint x="490" y="1920" as="targetPoint" />
          </mxGeometry>
        </mxCell>
        <mxCell id="n9ZrqxNSrh2-96SJ6r1Z-338" value="" style="ellipse;whiteSpace=wrap;html=1;aspect=fixed;" vertex="1" parent="1">
          <mxGeometry x="490" y="1510" width="20" height="20" as="geometry" />
        </mxCell>
        <mxCell id="n9ZrqxNSrh2-96SJ6r1Z-339" value="" style="endArrow=none;html=1;rounded=0;" edge="1" parent="1">
          <mxGeometry width="50" height="50" relative="1" as="geometry">
            <mxPoint x="280" y="1400" as="sourcePoint" />
            <mxPoint x="280" y="1400" as="targetPoint" />
          </mxGeometry>
        </mxCell>
        <mxCell id="n9ZrqxNSrh2-96SJ6r1Z-340" value="" style="endArrow=none;html=1;rounded=0;" edge="1" parent="1" target="n9ZrqxNSrh2-96SJ6r1Z-341">
          <mxGeometry width="50" height="50" relative="1" as="geometry">
            <mxPoint x="280" y="1400" as="sourcePoint" />
            <mxPoint x="390" y="1140" as="targetPoint" />
          </mxGeometry>
        </mxCell>
        <mxCell id="n9ZrqxNSrh2-96SJ6r1Z-341" value="" style="ellipse;whiteSpace=wrap;html=1;aspect=fixed;" vertex="1" parent="1">
          <mxGeometry x="490" y="1240" width="20" height="20" as="geometry" />
        </mxCell>
        <mxCell id="n9ZrqxNSrh2-96SJ6r1Z-342" value="" style="endArrow=none;html=1;rounded=0;" edge="1" parent="1" target="n9ZrqxNSrh2-96SJ6r1Z-343">
          <mxGeometry width="50" height="50" relative="1" as="geometry">
            <mxPoint x="280" y="1400" as="sourcePoint" />
            <mxPoint x="400" y="1240" as="targetPoint" />
          </mxGeometry>
        </mxCell>
        <mxCell id="n9ZrqxNSrh2-96SJ6r1Z-343" value="" style="ellipse;whiteSpace=wrap;html=1;aspect=fixed;" vertex="1" parent="1">
          <mxGeometry x="490" y="1280" width="20" height="20" as="geometry" />
        </mxCell>
        <mxCell id="n9ZrqxNSrh2-96SJ6r1Z-344" value="" style="endArrow=none;html=1;rounded=0;" edge="1" parent="1" target="n9ZrqxNSrh2-96SJ6r1Z-345">
          <mxGeometry width="50" height="50" relative="1" as="geometry">
            <mxPoint x="280" y="1400" as="sourcePoint" />
            <mxPoint x="400" y="1320" as="targetPoint" />
          </mxGeometry>
        </mxCell>
        <mxCell id="n9ZrqxNSrh2-96SJ6r1Z-345" value="" style="ellipse;whiteSpace=wrap;html=1;aspect=fixed;direction=south;" vertex="1" parent="1">
          <mxGeometry x="490" y="1330" width="20" height="20" as="geometry" />
        </mxCell>
        <mxCell id="n9ZrqxNSrh2-96SJ6r1Z-346" value="" style="endArrow=none;html=1;rounded=0;" edge="1" parent="1" target="n9ZrqxNSrh2-96SJ6r1Z-347">
          <mxGeometry width="50" height="50" relative="1" as="geometry">
            <mxPoint x="290" y="1400" as="sourcePoint" />
            <mxPoint x="400" y="1400" as="targetPoint" />
          </mxGeometry>
        </mxCell>
        <mxCell id="n9ZrqxNSrh2-96SJ6r1Z-347" value="" style="ellipse;whiteSpace=wrap;html=1;aspect=fixed;" vertex="1" parent="1">
          <mxGeometry x="490" y="1370" width="20" height="20" as="geometry" />
        </mxCell>
        <mxCell id="n9ZrqxNSrh2-96SJ6r1Z-348" value="" style="endArrow=none;html=1;rounded=0;" edge="1" parent="1" target="n9ZrqxNSrh2-96SJ6r1Z-349">
          <mxGeometry width="50" height="50" relative="1" as="geometry">
            <mxPoint x="290" y="1401" as="sourcePoint" />
            <mxPoint x="400" y="1470" as="targetPoint" />
          </mxGeometry>
        </mxCell>
        <mxCell id="n9ZrqxNSrh2-96SJ6r1Z-349" value="" style="ellipse;whiteSpace=wrap;html=1;aspect=fixed;" vertex="1" parent="1">
          <mxGeometry x="490" y="1410" width="20" height="20" as="geometry" />
        </mxCell>
        <mxCell id="n9ZrqxNSrh2-96SJ6r1Z-350" value="" style="endArrow=none;html=1;rounded=0;" edge="1" parent="1" target="n9ZrqxNSrh2-96SJ6r1Z-351">
          <mxGeometry width="50" height="50" relative="1" as="geometry">
            <mxPoint x="280" y="1400" as="sourcePoint" />
            <mxPoint x="400" y="1550" as="targetPoint" />
          </mxGeometry>
        </mxCell>
        <mxCell id="n9ZrqxNSrh2-96SJ6r1Z-351" value="" style="ellipse;whiteSpace=wrap;html=1;aspect=fixed;" vertex="1" parent="1">
          <mxGeometry x="490" y="1460" width="20" height="20" as="geometry" />
        </mxCell>
        <mxCell id="n9ZrqxNSrh2-96SJ6r1Z-352" value="K = 0&lt;div&gt;25/36&lt;/div&gt;" style="rounded=0;whiteSpace=wrap;html=1;" vertex="1" parent="1">
          <mxGeometry x="240" y="-560" width="60" height="26" as="geometry" />
        </mxCell>
        <mxCell id="n9ZrqxNSrh2-96SJ6r1Z-353" value="K = 1&lt;div&gt;2/36&lt;/div&gt;" style="rounded=0;whiteSpace=wrap;html=1;" vertex="1" parent="1">
          <mxGeometry x="240" y="-240" width="60" height="26" as="geometry" />
        </mxCell>
        <mxCell id="n9ZrqxNSrh2-96SJ6r1Z-354" value="K = 2&lt;div&gt;2/36&lt;/div&gt;" style="rounded=0;whiteSpace=wrap;html=1;" vertex="1" parent="1">
          <mxGeometry x="240" y="84" width="60" height="26" as="geometry" />
        </mxCell>
        <mxCell id="n9ZrqxNSrh2-96SJ6r1Z-355" value="K = 3&lt;div&gt;2/36&lt;/div&gt;" style="rounded=0;whiteSpace=wrap;html=1;" vertex="1" parent="1">
          <mxGeometry x="240" y="404" width="60" height="26" as="geometry" />
        </mxCell>
        <mxCell id="n9ZrqxNSrh2-96SJ6r1Z-356" value="K = 4&lt;div&gt;1/36&lt;/div&gt;" style="rounded=0;whiteSpace=wrap;html=1;" vertex="1" parent="1">
          <mxGeometry x="240" y="724" width="60" height="26" as="geometry" />
        </mxCell>
        <mxCell id="n9ZrqxNSrh2-96SJ6r1Z-357" value="K = 5&lt;div&gt;2/36&lt;/div&gt;" style="rounded=0;whiteSpace=wrap;html=1;" vertex="1" parent="1">
          <mxGeometry x="240" y="1044" width="60" height="26" as="geometry" />
        </mxCell>
        <mxCell id="n9ZrqxNSrh2-96SJ6r1Z-358" value="K = 6&lt;div&gt;2/36&lt;/div&gt;" style="rounded=0;whiteSpace=wrap;html=1;" vertex="1" parent="1">
          <mxGeometry x="240" y="1364" width="60" height="26" as="geometry" />
        </mxCell>
        <mxCell id="n9ZrqxNSrh2-96SJ6r1Z-359" value="K = 0&lt;div&gt;25/36&lt;/div&gt;" style="rounded=0;whiteSpace=wrap;html=1;" vertex="1" parent="1">
          <mxGeometry x="510" y="-686" width="60" height="26" as="geometry" />
        </mxCell>
        <mxCell id="n9ZrqxNSrh2-96SJ6r1Z-360" value="K = 1&lt;div&gt;2/36&lt;/div&gt;" style="rounded=0;whiteSpace=wrap;html=1;" vertex="1" parent="1">
          <mxGeometry x="510" y="-643" width="60" height="26" as="geometry" />
        </mxCell>
        <mxCell id="n9ZrqxNSrh2-96SJ6r1Z-361" value="K = 2&lt;div&gt;2/36&lt;/div&gt;" style="rounded=0;whiteSpace=wrap;html=1;" vertex="1" parent="1">
          <mxGeometry x="510" y="-593" width="60" height="26" as="geometry" />
        </mxCell>
        <mxCell id="n9ZrqxNSrh2-96SJ6r1Z-362" value="K = 3&lt;div&gt;2/36&lt;/div&gt;" style="rounded=0;whiteSpace=wrap;html=1;" vertex="1" parent="1">
          <mxGeometry x="510" y="-553" width="60" height="26" as="geometry" />
        </mxCell>
        <mxCell id="n9ZrqxNSrh2-96SJ6r1Z-363" value="K = 4&lt;div&gt;1/36&lt;/div&gt;" style="rounded=0;whiteSpace=wrap;html=1;" vertex="1" parent="1">
          <mxGeometry x="510" y="-513" width="60" height="26" as="geometry" />
        </mxCell>
        <mxCell id="n9ZrqxNSrh2-96SJ6r1Z-364" value="K = 5&lt;div&gt;2/36&lt;/div&gt;" style="rounded=0;whiteSpace=wrap;html=1;" vertex="1" parent="1">
          <mxGeometry x="510" y="-463" width="60" height="26" as="geometry" />
        </mxCell>
        <mxCell id="n9ZrqxNSrh2-96SJ6r1Z-365" value="K = 6&lt;div&gt;2/36&lt;/div&gt;" style="rounded=0;whiteSpace=wrap;html=1;" vertex="1" parent="1">
          <mxGeometry x="510" y="-413" width="60" height="26" as="geometry" />
        </mxCell>
        <mxCell id="n9ZrqxNSrh2-96SJ6r1Z-367" value="K = 0&lt;div&gt;25/36&lt;/div&gt;" style="rounded=0;whiteSpace=wrap;html=1;" vertex="1" parent="1">
          <mxGeometry x="510" y="-369" width="60" height="26" as="geometry" />
        </mxCell>
        <mxCell id="n9ZrqxNSrh2-96SJ6r1Z-368" value="K = 1&lt;div&gt;2/36&lt;/div&gt;" style="rounded=0;whiteSpace=wrap;html=1;" vertex="1" parent="1">
          <mxGeometry x="510" y="-326" width="60" height="26" as="geometry" />
        </mxCell>
        <mxCell id="n9ZrqxNSrh2-96SJ6r1Z-369" value="K = 2&lt;div&gt;2/36&lt;/div&gt;" style="rounded=0;whiteSpace=wrap;html=1;" vertex="1" parent="1">
          <mxGeometry x="510" y="-276" width="60" height="26" as="geometry" />
        </mxCell>
        <mxCell id="n9ZrqxNSrh2-96SJ6r1Z-370" value="K = 3&lt;div&gt;2/36&lt;/div&gt;" style="rounded=0;whiteSpace=wrap;html=1;" vertex="1" parent="1">
          <mxGeometry x="510" y="-236" width="60" height="26" as="geometry" />
        </mxCell>
        <mxCell id="n9ZrqxNSrh2-96SJ6r1Z-371" value="K = 4&lt;div&gt;1/36&lt;/div&gt;" style="rounded=0;whiteSpace=wrap;html=1;" vertex="1" parent="1">
          <mxGeometry x="510" y="-196" width="60" height="26" as="geometry" />
        </mxCell>
        <mxCell id="n9ZrqxNSrh2-96SJ6r1Z-372" value="K = 5&lt;div&gt;2/36&lt;/div&gt;" style="rounded=0;whiteSpace=wrap;html=1;" vertex="1" parent="1">
          <mxGeometry x="510" y="-146" width="60" height="26" as="geometry" />
        </mxCell>
        <mxCell id="n9ZrqxNSrh2-96SJ6r1Z-373" value="K = 6&lt;div&gt;2/36&lt;/div&gt;" style="rounded=0;whiteSpace=wrap;html=1;" vertex="1" parent="1">
          <mxGeometry x="510" y="-96" width="60" height="26" as="geometry" />
        </mxCell>
        <mxCell id="n9ZrqxNSrh2-96SJ6r1Z-374" value="K = 0&lt;div&gt;25/36&lt;/div&gt;" style="rounded=0;whiteSpace=wrap;html=1;" vertex="1" parent="1">
          <mxGeometry x="510" y="-49" width="60" height="26" as="geometry" />
        </mxCell>
        <mxCell id="n9ZrqxNSrh2-96SJ6r1Z-375" value="K = 1&lt;div&gt;2/36&lt;/div&gt;" style="rounded=0;whiteSpace=wrap;html=1;" vertex="1" parent="1">
          <mxGeometry x="510" y="-6" width="60" height="26" as="geometry" />
        </mxCell>
        <mxCell id="n9ZrqxNSrh2-96SJ6r1Z-376" value="K = 2&lt;div&gt;2/36&lt;/div&gt;" style="rounded=0;whiteSpace=wrap;html=1;" vertex="1" parent="1">
          <mxGeometry x="510" y="44" width="60" height="26" as="geometry" />
        </mxCell>
        <mxCell id="n9ZrqxNSrh2-96SJ6r1Z-377" value="K = 3&lt;div&gt;2/36&lt;/div&gt;" style="rounded=0;whiteSpace=wrap;html=1;" vertex="1" parent="1">
          <mxGeometry x="510" y="84" width="60" height="26" as="geometry" />
        </mxCell>
        <mxCell id="n9ZrqxNSrh2-96SJ6r1Z-378" value="K = 4&lt;div&gt;1/36&lt;/div&gt;" style="rounded=0;whiteSpace=wrap;html=1;" vertex="1" parent="1">
          <mxGeometry x="510" y="124" width="60" height="26" as="geometry" />
        </mxCell>
        <mxCell id="n9ZrqxNSrh2-96SJ6r1Z-379" value="K = 5&lt;div&gt;2/36&lt;/div&gt;" style="rounded=0;whiteSpace=wrap;html=1;" vertex="1" parent="1">
          <mxGeometry x="510" y="174" width="60" height="26" as="geometry" />
        </mxCell>
        <mxCell id="n9ZrqxNSrh2-96SJ6r1Z-380" value="K = 6&lt;div&gt;2/36&lt;/div&gt;" style="rounded=0;whiteSpace=wrap;html=1;" vertex="1" parent="1">
          <mxGeometry x="510" y="224" width="60" height="26" as="geometry" />
        </mxCell>
        <mxCell id="n9ZrqxNSrh2-96SJ6r1Z-381" value="K = 0&lt;div&gt;25/36&lt;/div&gt;" style="rounded=0;whiteSpace=wrap;html=1;" vertex="1" parent="1">
          <mxGeometry x="510" y="271" width="60" height="26" as="geometry" />
        </mxCell>
        <mxCell id="n9ZrqxNSrh2-96SJ6r1Z-382" value="K = 1&lt;div&gt;2/36&lt;/div&gt;" style="rounded=0;whiteSpace=wrap;html=1;" vertex="1" parent="1">
          <mxGeometry x="510" y="314" width="60" height="26" as="geometry" />
        </mxCell>
        <mxCell id="n9ZrqxNSrh2-96SJ6r1Z-383" value="K = 2&lt;div&gt;2/36&lt;/div&gt;" style="rounded=0;whiteSpace=wrap;html=1;" vertex="1" parent="1">
          <mxGeometry x="510" y="364" width="60" height="26" as="geometry" />
        </mxCell>
        <mxCell id="n9ZrqxNSrh2-96SJ6r1Z-384" value="K = 3&lt;div&gt;2/36&lt;/div&gt;" style="rounded=0;whiteSpace=wrap;html=1;" vertex="1" parent="1">
          <mxGeometry x="510" y="404" width="60" height="26" as="geometry" />
        </mxCell>
        <mxCell id="n9ZrqxNSrh2-96SJ6r1Z-385" value="K = 4&lt;div&gt;1/36&lt;/div&gt;" style="rounded=0;whiteSpace=wrap;html=1;" vertex="1" parent="1">
          <mxGeometry x="510" y="444" width="60" height="26" as="geometry" />
        </mxCell>
        <mxCell id="n9ZrqxNSrh2-96SJ6r1Z-386" value="K = 5&lt;div&gt;2/36&lt;/div&gt;" style="rounded=0;whiteSpace=wrap;html=1;" vertex="1" parent="1">
          <mxGeometry x="510" y="494" width="60" height="26" as="geometry" />
        </mxCell>
        <mxCell id="n9ZrqxNSrh2-96SJ6r1Z-387" value="K = 6&lt;div&gt;2/36&lt;/div&gt;" style="rounded=0;whiteSpace=wrap;html=1;" vertex="1" parent="1">
          <mxGeometry x="510" y="544" width="60" height="26" as="geometry" />
        </mxCell>
        <mxCell id="n9ZrqxNSrh2-96SJ6r1Z-388" value="K = 0&lt;div&gt;25/36&lt;/div&gt;" style="rounded=0;whiteSpace=wrap;html=1;" vertex="1" parent="1">
          <mxGeometry x="510" y="591" width="60" height="26" as="geometry" />
        </mxCell>
        <mxCell id="n9ZrqxNSrh2-96SJ6r1Z-389" value="K = 1&lt;div&gt;2/36&lt;/div&gt;" style="rounded=0;whiteSpace=wrap;html=1;" vertex="1" parent="1">
          <mxGeometry x="510" y="634" width="60" height="26" as="geometry" />
        </mxCell>
        <mxCell id="n9ZrqxNSrh2-96SJ6r1Z-390" value="K = 2&lt;div&gt;2/36&lt;/div&gt;" style="rounded=0;whiteSpace=wrap;html=1;" vertex="1" parent="1">
          <mxGeometry x="510" y="684" width="60" height="26" as="geometry" />
        </mxCell>
        <mxCell id="n9ZrqxNSrh2-96SJ6r1Z-391" value="K = 3&lt;div&gt;2/36&lt;/div&gt;" style="rounded=0;whiteSpace=wrap;html=1;" vertex="1" parent="1">
          <mxGeometry x="510" y="724" width="60" height="26" as="geometry" />
        </mxCell>
        <mxCell id="n9ZrqxNSrh2-96SJ6r1Z-392" value="K = 4&lt;div&gt;1/36&lt;/div&gt;" style="rounded=0;whiteSpace=wrap;html=1;" vertex="1" parent="1">
          <mxGeometry x="510" y="764" width="60" height="26" as="geometry" />
        </mxCell>
        <mxCell id="n9ZrqxNSrh2-96SJ6r1Z-393" value="K = 5&lt;div&gt;2/36&lt;/div&gt;" style="rounded=0;whiteSpace=wrap;html=1;" vertex="1" parent="1">
          <mxGeometry x="510" y="814" width="60" height="26" as="geometry" />
        </mxCell>
        <mxCell id="n9ZrqxNSrh2-96SJ6r1Z-394" value="K = 6&lt;div&gt;2/36&lt;/div&gt;" style="rounded=0;whiteSpace=wrap;html=1;" vertex="1" parent="1">
          <mxGeometry x="510" y="864" width="60" height="26" as="geometry" />
        </mxCell>
        <mxCell id="n9ZrqxNSrh2-96SJ6r1Z-395" value="K = 0&lt;div&gt;25/36&lt;/div&gt;" style="rounded=0;whiteSpace=wrap;html=1;" vertex="1" parent="1">
          <mxGeometry x="510" y="911" width="60" height="26" as="geometry" />
        </mxCell>
        <mxCell id="n9ZrqxNSrh2-96SJ6r1Z-396" value="K = 1&lt;div&gt;2/36&lt;/div&gt;" style="rounded=0;whiteSpace=wrap;html=1;" vertex="1" parent="1">
          <mxGeometry x="510" y="954" width="60" height="26" as="geometry" />
        </mxCell>
        <mxCell id="n9ZrqxNSrh2-96SJ6r1Z-397" value="K = 2&lt;div&gt;2/36&lt;/div&gt;" style="rounded=0;whiteSpace=wrap;html=1;" vertex="1" parent="1">
          <mxGeometry x="510" y="1004" width="60" height="26" as="geometry" />
        </mxCell>
        <mxCell id="n9ZrqxNSrh2-96SJ6r1Z-398" value="K = 3&lt;div&gt;2/36&lt;/div&gt;" style="rounded=0;whiteSpace=wrap;html=1;" vertex="1" parent="1">
          <mxGeometry x="510" y="1044" width="60" height="26" as="geometry" />
        </mxCell>
        <mxCell id="n9ZrqxNSrh2-96SJ6r1Z-399" value="K = 4&lt;div&gt;1/36&lt;/div&gt;" style="rounded=0;whiteSpace=wrap;html=1;" vertex="1" parent="1">
          <mxGeometry x="510" y="1084" width="60" height="26" as="geometry" />
        </mxCell>
        <mxCell id="n9ZrqxNSrh2-96SJ6r1Z-400" value="K = 5&lt;div&gt;2/36&lt;/div&gt;" style="rounded=0;whiteSpace=wrap;html=1;" vertex="1" parent="1">
          <mxGeometry x="510" y="1134" width="60" height="26" as="geometry" />
        </mxCell>
        <mxCell id="n9ZrqxNSrh2-96SJ6r1Z-401" value="K = 6&lt;div&gt;2/36&lt;/div&gt;" style="rounded=0;whiteSpace=wrap;html=1;" vertex="1" parent="1">
          <mxGeometry x="510" y="1184" width="60" height="26" as="geometry" />
        </mxCell>
        <mxCell id="n9ZrqxNSrh2-96SJ6r1Z-402" value="K = 0&lt;div&gt;25/36&lt;/div&gt;" style="rounded=0;whiteSpace=wrap;html=1;" vertex="1" parent="1">
          <mxGeometry x="510" y="1231" width="60" height="26" as="geometry" />
        </mxCell>
        <mxCell id="n9ZrqxNSrh2-96SJ6r1Z-403" value="K = 1&lt;div&gt;2/36&lt;/div&gt;" style="rounded=0;whiteSpace=wrap;html=1;" vertex="1" parent="1">
          <mxGeometry x="510" y="1274" width="60" height="26" as="geometry" />
        </mxCell>
        <mxCell id="n9ZrqxNSrh2-96SJ6r1Z-404" value="K = 2&lt;div&gt;2/36&lt;/div&gt;" style="rounded=0;whiteSpace=wrap;html=1;" vertex="1" parent="1">
          <mxGeometry x="510" y="1324" width="60" height="26" as="geometry" />
        </mxCell>
        <mxCell id="n9ZrqxNSrh2-96SJ6r1Z-405" value="K = 3&lt;div&gt;2/36&lt;/div&gt;" style="rounded=0;whiteSpace=wrap;html=1;" vertex="1" parent="1">
          <mxGeometry x="510" y="1364" width="60" height="26" as="geometry" />
        </mxCell>
        <mxCell id="n9ZrqxNSrh2-96SJ6r1Z-406" value="K = 4&lt;div&gt;1/36&lt;/div&gt;" style="rounded=0;whiteSpace=wrap;html=1;" vertex="1" parent="1">
          <mxGeometry x="510" y="1404" width="60" height="26" as="geometry" />
        </mxCell>
        <mxCell id="n9ZrqxNSrh2-96SJ6r1Z-407" value="K = 5&lt;div&gt;2/36&lt;/div&gt;" style="rounded=0;whiteSpace=wrap;html=1;" vertex="1" parent="1">
          <mxGeometry x="510" y="1454" width="60" height="26" as="geometry" />
        </mxCell>
        <mxCell id="n9ZrqxNSrh2-96SJ6r1Z-408" value="K = 6&lt;div&gt;2/36&lt;/div&gt;" style="rounded=0;whiteSpace=wrap;html=1;" vertex="1" parent="1">
          <mxGeometry x="510" y="1504" width="60" height="26" as="geometry" />
        </mxCell>
      </root>
    </mxGraphModel>
  </diagram>
</mxfile>
